<?xml version="1.0" encoding="UTF-8" standalone="no"?>
<!-- Created with Inkscape (http://www.inkscape.org/) -->

<svg
   xmlns:dc="http://purl.org/dc/elements/1.1/"
   xmlns:cc="http://creativecommons.org/ns#"
   xmlns:rdf="http://www.w3.org/1999/02/22-rdf-syntax-ns#"
   xmlns:svg="http://www.w3.org/2000/svg"
   xmlns="http://www.w3.org/2000/svg"
   xmlns:inkscape="http://www.inkscape.org/namespaces/inkscape"
   version="1.1"
   width="439.375"
   height="226.77499"
   id="svg2"
   xml:space="preserve"><metadata
     id="metadata8"><rdf:RDF><cc:Work
         rdf:about=""><dc:format>image/svg+xml</dc:format><dc:type
           rdf:resource="http://purl.org/dc/dcmitype/StillImage" /></cc:Work></rdf:RDF></metadata><defs
     id="defs6"><clipPath
       id="clipPath58"><path
         d="m 202.434,991.941 0,704.679 3110.136,0 0,-1409.354 -3110.136,0 0,704.675 z"
         inkscape:connector-curvature="0"
         id="path60" /></clipPath></defs><g
     transform="matrix(1.25,0,0,-1.25,0,226.775)"
     id="g10"><g
       transform="scale(0.1,0.1)"
       id="g12"><path
         d="m 202.434,991.941 0,704.679 3110.136,0 0,-1409.354 -3110.136,0"
         inkscape:connector-curvature="0"
         id="path14"
         style="fill:#ffffff;fill-opacity:1;fill-rule:nonzero;stroke:none" /><path
         d="m 202.434,991.941 0,704.679 3110.136,0 0,-1409.354 -3110.136,0 0,704.675 z"
         inkscape:connector-curvature="0"
         id="path16"
         style="fill:none;stroke:#000000;stroke-width:7.97010994;stroke-linecap:butt;stroke-linejoin:miter;stroke-miterlimit:10;stroke-opacity:1;stroke-dasharray:none" /><path
         d="m 198.449,283.281 0,1417.319"
         inkscape:connector-curvature="0"
         id="path18"
         style="fill:none;stroke:#b2b2b2;stroke-width:7.97010994;stroke-linecap:square;stroke-linejoin:miter;stroke-miterlimit:10;stroke-opacity:1;stroke-dasharray:none" /><path
         d="m 481.914,283.281 0,1417.319"
         inkscape:connector-curvature="0"
         id="path20"
         style="fill:none;stroke:#b2b2b2;stroke-width:7.97010994;stroke-linecap:square;stroke-linejoin:miter;stroke-miterlimit:10;stroke-opacity:1;stroke-dasharray:none" /><path
         d="m 765.379,283.281 0,1417.319"
         inkscape:connector-curvature="0"
         id="path22"
         style="fill:none;stroke:#b2b2b2;stroke-width:7.97010994;stroke-linecap:square;stroke-linejoin:miter;stroke-miterlimit:10;stroke-opacity:1;stroke-dasharray:none" /><path
         d="m 1048.84,283.281 0,1417.319"
         inkscape:connector-curvature="0"
         id="path24"
         style="fill:none;stroke:#b2b2b2;stroke-width:7.97010994;stroke-linecap:square;stroke-linejoin:miter;stroke-miterlimit:10;stroke-opacity:1;stroke-dasharray:none" /><path
         d="m 1332.31,283.281 0,1417.319"
         inkscape:connector-curvature="0"
         id="path26"
         style="fill:none;stroke:#b2b2b2;stroke-width:7.97010994;stroke-linecap:square;stroke-linejoin:miter;stroke-miterlimit:10;stroke-opacity:1;stroke-dasharray:none" /><path
         d="m 1615.77,283.281 0,1417.319"
         inkscape:connector-curvature="0"
         id="path28"
         style="fill:none;stroke:#b2b2b2;stroke-width:7.97010994;stroke-linecap:square;stroke-linejoin:miter;stroke-miterlimit:10;stroke-opacity:1;stroke-dasharray:none" /><path
         d="m 1899.24,283.281 0,1417.319"
         inkscape:connector-curvature="0"
         id="path30"
         style="fill:none;stroke:#b2b2b2;stroke-width:7.97010994;stroke-linecap:square;stroke-linejoin:miter;stroke-miterlimit:10;stroke-opacity:1;stroke-dasharray:none" /><path
         d="m 2182.7,283.281 0,1417.319"
         inkscape:connector-curvature="0"
         id="path32"
         style="fill:none;stroke:#b2b2b2;stroke-width:7.97010994;stroke-linecap:square;stroke-linejoin:miter;stroke-miterlimit:10;stroke-opacity:1;stroke-dasharray:none" /><path
         d="m 2466.16,283.281 0,1417.319"
         inkscape:connector-curvature="0"
         id="path34"
         style="fill:none;stroke:#b2b2b2;stroke-width:7.97010994;stroke-linecap:square;stroke-linejoin:miter;stroke-miterlimit:10;stroke-opacity:1;stroke-dasharray:none" /><path
         d="m 2749.63,283.281 0,1417.319"
         inkscape:connector-curvature="0"
         id="path36"
         style="fill:none;stroke:#b2b2b2;stroke-width:7.97010994;stroke-linecap:square;stroke-linejoin:miter;stroke-miterlimit:10;stroke-opacity:1;stroke-dasharray:none" /><path
         d="m 3033.09,283.281 0,1417.319"
         inkscape:connector-curvature="0"
         id="path38"
         style="fill:none;stroke:#b2b2b2;stroke-width:7.97010994;stroke-linecap:square;stroke-linejoin:miter;stroke-miterlimit:10;stroke-opacity:1;stroke-dasharray:none" /><path
         d="m 3316.56,283.281 0,1417.319"
         inkscape:connector-curvature="0"
         id="path40"
         style="fill:none;stroke:#b2b2b2;stroke-width:7.97010994;stroke-linecap:square;stroke-linejoin:miter;stroke-miterlimit:10;stroke-opacity:1;stroke-dasharray:none" /><path
         d="m 198.449,283.281 3118.111,0"
         inkscape:connector-curvature="0"
         id="path42"
         style="fill:none;stroke:#b2b2b2;stroke-width:7.97010994;stroke-linecap:square;stroke-linejoin:miter;stroke-miterlimit:10;stroke-opacity:1;stroke-dasharray:none" /><path
         d="m 198.449,566.746 3118.111,0"
         inkscape:connector-curvature="0"
         id="path44"
         style="fill:none;stroke:#b2b2b2;stroke-width:7.97010994;stroke-linecap:square;stroke-linejoin:miter;stroke-miterlimit:10;stroke-opacity:1;stroke-dasharray:none" /><path
         d="m 198.449,850.207 3118.111,0"
         inkscape:connector-curvature="0"
         id="path46"
         style="fill:none;stroke:#b2b2b2;stroke-width:7.97010994;stroke-linecap:square;stroke-linejoin:miter;stroke-miterlimit:10;stroke-opacity:1;stroke-dasharray:none" /><path
         d="m 198.449,1133.67 3118.111,0"
         inkscape:connector-curvature="0"
         id="path48"
         style="fill:none;stroke:#b2b2b2;stroke-width:7.97010994;stroke-linecap:square;stroke-linejoin:miter;stroke-miterlimit:10;stroke-opacity:1;stroke-dasharray:none" /><path
         d="m 198.449,1417.14 3118.111,0"
         inkscape:connector-curvature="0"
         id="path50"
         style="fill:none;stroke:#b2b2b2;stroke-width:7.97010994;stroke-linecap:square;stroke-linejoin:miter;stroke-miterlimit:10;stroke-opacity:1;stroke-dasharray:none" /><path
         d="m 198.449,1700.6 3118.111,0"
         inkscape:connector-curvature="0"
         id="path52"
         style="fill:none;stroke:#b2b2b2;stroke-width:7.97010994;stroke-linecap:square;stroke-linejoin:miter;stroke-miterlimit:10;stroke-opacity:1;stroke-dasharray:none" /><g
         id="g54"><g
           clip-path="url(#clipPath58)"
           id="g56"><path
             d="m 198.449,708.477 c 0,0 1992.311,395.383 2834.641,992.123 509.08,360.65 1414.99,925.16 1133.86,1417.33 C 3546.04,4204.94 198.449,2551 198.449,2551"
             inkscape:connector-curvature="0"
             id="path62"
             style="fill:#f9dc24;fill-opacity:1;fill-rule:nonzero;stroke:none" /><path
             d="m 198.449,708.477 c 0,0 1992.311,395.383 2834.641,992.123 509.08,360.65 1414.99,925.16 1133.86,1417.33 C 3546.04,4204.94 198.449,2551 198.449,2551"
             inkscape:connector-curvature="0"
             id="path64"
             style="fill:none;stroke:#000000;stroke-width:7.97010994;stroke-linecap:butt;stroke-linejoin:miter;stroke-miterlimit:10;stroke-opacity:1;stroke-dasharray:none" /><path
             d="m 1615.77,283.281 c 0,0 355.12,229.375 566.93,277.793 C 3419.08,843.699 4596.1,549.461 5867.74,538.395 13693.6,470.297 28544.9,283.281 28544.9,283.281"
             inkscape:connector-curvature="0"
             id="path66"
             style="fill:#f9dc24;fill-opacity:1;fill-rule:nonzero;stroke:none" /><g
             transform="scale(1.75122,1.75122)"
             id="g68"><path
               d="m 922.656,161.762 c 0,0 202.784,130.98 323.734,158.628 706.01,161.388 1378.12,-6.631 2104.27,-12.95 C 7819.44,268.554 16300,161.762 16300,161.762"
               inkscape:connector-curvature="0"
               id="path70"
               style="fill:none;stroke:#000000;stroke-width:4.55117989;stroke-linecap:butt;stroke-linejoin:miter;stroke-miterlimit:10;stroke-opacity:1;stroke-dasharray:none" /></g></g></g><g
         transform="scale(10,10)"
         id="g72"><text
           transform="matrix(1,0,0,-1,23.9832,84.8676)"
           id="text74"><tspan
             x="0"
             y="0"
             id="tspan76"
             style="font-size:11.95510006px;font-variant:normal;font-weight:normal;writing-mode:lr-tb;fill:#000000;fill-opacity:1;fill-rule:nonzero;stroke:none;font-family:CMMI12;-inkscape-font-specification:CMMI12">h</tspan></text>
<text
           transform="matrix(1,0,0,-1,30.72422,84.8676)"
           id="text78"><tspan
             x="0"
             y="0"
             id="tspan80"
             style="font-size:11.95510006px;font-variant:normal;font-weight:normal;writing-mode:lr-tb;fill:#000000;fill-opacity:1;fill-rule:nonzero;stroke:none;font-family:CMR12;-inkscape-font-specification:CMR12">(</tspan></text>
<text
           transform="matrix(1,0,0,-1,35.27813,84.8676)"
           id="text82"><tspan
             x="0"
             y="0"
             id="tspan84"
             style="font-size:11.95510006px;font-variant:normal;font-weight:normal;writing-mode:lr-tb;fill:#000000;fill-opacity:1;fill-rule:nonzero;stroke:none;font-family:CMMI12;-inkscape-font-specification:CMMI12">t</tspan></text>
<text
           transform="matrix(1,0,0,-1,39.50821,84.8676)"
           id="text86"><tspan
             x="0"
             y="0"
             id="tspan88"
             style="font-size:11.95510006px;font-variant:normal;font-weight:normal;writing-mode:lr-tb;fill:#000000;fill-opacity:1;fill-rule:nonzero;stroke:none;font-family:CMR12;-inkscape-font-specification:CMR12">)</tspan></text>
<text
           transform="matrix(1,0,0,-1,194.41321,33.8442)"
           id="text90"><tspan
             x="0"
             y="0"
             id="tspan92"
             style="font-size:11.95510006px;font-variant:normal;font-weight:normal;writing-mode:lr-tb;fill:#000000;fill-opacity:1;fill-rule:nonzero;stroke:none;font-family:CMMI12;-inkscape-font-specification:CMMI12">g</tspan></text>
<text
           transform="matrix(1,0,0,-1,200.45227,33.8442)"
           id="text94"><tspan
             x="0"
             y="0"
             id="tspan96"
             style="font-size:11.95510006px;font-variant:normal;font-weight:normal;writing-mode:lr-tb;fill:#000000;fill-opacity:1;fill-rule:nonzero;stroke:none;font-family:CMR12;-inkscape-font-specification:CMR12">(</tspan></text>
<text
           transform="matrix(1,0,0,-1,205.00618,33.8442)"
           id="text98"><tspan
             x="0"
             y="0"
             id="tspan100"
             style="font-size:11.95510006px;font-variant:normal;font-weight:normal;writing-mode:lr-tb;fill:#000000;fill-opacity:1;fill-rule:nonzero;stroke:none;font-family:CMMI12;-inkscape-font-specification:CMMI12">t</tspan></text>
<text
           transform="matrix(1,0,0,-1,209.23626,33.8442)"
           id="text102"><tspan
             x="0"
             y="0"
             id="tspan104"
             style="font-size:11.95510006px;font-variant:normal;font-weight:normal;writing-mode:lr-tb;fill:#000000;fill-opacity:1;fill-rule:nonzero;stroke:none;font-family:CMR12;-inkscape-font-specification:CMR12">)</tspan><tspan
             x="-206.489"
             y="5.6828098"
             id="tspan106"
             style="font-size:11.95510006px;font-variant:normal;font-weight:normal;writing-mode:lr-tb;fill:#000000;fill-opacity:1;fill-rule:nonzero;stroke:none;font-family:CMR12;-inkscape-font-specification:CMR12">0</tspan><tspan
             x="-206.489"
             y="-18.97809"
             id="tspan108"
             style="font-size:11.95510006px;font-variant:normal;font-weight:normal;writing-mode:lr-tb;fill:#000000;fill-opacity:1;fill-rule:nonzero;stroke:none;font-family:CMR12;-inkscape-font-specification:CMR12">1</tspan><tspan
             x="-206.489"
             y="-47.324589"
             id="tspan110"
             style="font-size:11.95510006px;font-variant:normal;font-weight:normal;writing-mode:lr-tb;fill:#000000;fill-opacity:1;fill-rule:nonzero;stroke:none;font-family:CMR12;-inkscape-font-specification:CMR12">2</tspan><tspan
             x="-206.489"
             y="-75.671089"
             id="tspan112"
             style="font-size:11.95510006px;font-variant:normal;font-weight:normal;writing-mode:lr-tb;fill:#000000;fill-opacity:1;fill-rule:nonzero;stroke:none;font-family:CMR12;-inkscape-font-specification:CMR12">3</tspan><tspan
             x="-206.489"
             y="-104.01759"
             id="tspan114"
             style="font-size:11.95510006px;font-variant:normal;font-weight:normal;writing-mode:lr-tb;fill:#000000;fill-opacity:1;fill-rule:nonzero;stroke:none;font-family:CMR12;-inkscape-font-specification:CMR12">4</tspan><tspan
             x="-206.489"
             y="-132.36409"
             id="tspan116"
             style="font-size:11.95510006px;font-variant:normal;font-weight:normal;writing-mode:lr-tb;fill:#000000;fill-opacity:1;fill-rule:nonzero;stroke:none;font-family:CMR12;-inkscape-font-specification:CMR12">5</tspan></text>
</g><path
         d="m 170.102,288.949 56.695,0"
         inkscape:connector-curvature="0"
         id="path118"
         style="fill:none;stroke:#000000;stroke-width:9.96263981;stroke-linecap:butt;stroke-linejoin:miter;stroke-miterlimit:10;stroke-opacity:1;stroke-dasharray:none" /><path
         d="m 170.102,566.746 56.695,0"
         inkscape:connector-curvature="0"
         id="path120"
         style="fill:none;stroke:#000000;stroke-width:9.96263981;stroke-linecap:butt;stroke-linejoin:miter;stroke-miterlimit:10;stroke-opacity:1;stroke-dasharray:none" /><path
         d="m 170.102,850.207 56.695,0"
         inkscape:connector-curvature="0"
         id="path122"
         style="fill:none;stroke:#000000;stroke-width:9.96263981;stroke-linecap:butt;stroke-linejoin:miter;stroke-miterlimit:10;stroke-opacity:1;stroke-dasharray:none" /><path
         d="m 170.102,1133.67 56.695,0"
         inkscape:connector-curvature="0"
         id="path124"
         style="fill:none;stroke:#000000;stroke-width:9.96263981;stroke-linecap:butt;stroke-linejoin:miter;stroke-miterlimit:10;stroke-opacity:1;stroke-dasharray:none" /><path
         d="m 170.102,1417.14 56.695,0"
         inkscape:connector-curvature="0"
         id="path126"
         style="fill:none;stroke:#000000;stroke-width:9.96263981;stroke-linecap:butt;stroke-linejoin:miter;stroke-miterlimit:10;stroke-opacity:1;stroke-dasharray:none" /><path
         d="m 170.102,1700.6 56.695,0"
         inkscape:connector-curvature="0"
         id="path128"
         style="fill:none;stroke:#000000;stroke-width:9.96263981;stroke-linecap:butt;stroke-linejoin:miter;stroke-miterlimit:10;stroke-opacity:1;stroke-dasharray:none" /><g
         transform="scale(10,10)"
         id="g130"><text
           transform="matrix(1,0,0,-1,16.9199,10.3027)"
           id="text132"><tspan
             x="0"
             y="0"
             id="tspan134"
             style="font-size:11.95510006px;font-variant:normal;font-weight:normal;writing-mode:lr-tb;fill:#000000;fill-opacity:1;fill-rule:nonzero;stroke:none;font-family:CMR12;-inkscape-font-specification:CMR12">0</tspan></text>
<text
           transform="matrix(1,0,0,-1,77.725,11.37379)"
           id="text136"><tspan
             x="0"
             y="0"
             id="tspan138"
             style="font-size:11.95510006px;font-variant:normal;font-weight:normal;writing-mode:lr-tb;fill:#000000;fill-opacity:1;fill-rule:nonzero;stroke:none;font-family:CMMI12;-inkscape-font-specification:CMMI12">t</tspan></text>
<text
           transform="matrix(1,0,0,-1,81.95508,9.58277)"
           id="text140"><tspan
             x="0"
             y="0"
             id="tspan142"
             style="font-size:7.97010994px;font-variant:normal;font-weight:normal;writing-mode:lr-tb;fill:#000000;fill-opacity:1;fill-rule:nonzero;stroke:none;font-family:CMR8;-inkscape-font-specification:CMR8">1</tspan></text>
<text
           transform="matrix(1,0,0,-1,154.26058,11.37379)"
           id="text144"><tspan
             x="0"
             y="0"
             id="tspan146"
             style="font-size:11.95510006px;font-variant:normal;font-weight:normal;writing-mode:lr-tb;fill:#000000;fill-opacity:1;fill-rule:nonzero;stroke:none;font-family:CMMI12;-inkscape-font-specification:CMMI12">t</tspan></text>
<text
           transform="matrix(1,0,0,-1,158.49027,9.58277)"
           id="text148"><tspan
             x="0"
             y="0"
             id="tspan150"
             style="font-size:7.97010994px;font-variant:normal;font-weight:normal;writing-mode:lr-tb;fill:#000000;fill-opacity:1;fill-rule:nonzero;stroke:none;font-family:CMR8;-inkscape-font-specification:CMR8">2</tspan></text>
<text
           transform="matrix(1,0,0,-1,176.93757,11.37379)"
           id="text152"><tspan
             x="0"
             y="0"
             id="tspan154"
             style="font-size:11.95510006px;font-variant:normal;font-weight:normal;writing-mode:lr-tb;fill:#000000;fill-opacity:1;fill-rule:nonzero;stroke:none;font-family:CMMI12;-inkscape-font-specification:CMMI12">t</tspan></text>
<text
           transform="matrix(1,0,0,-1,181.16765,9.58277)"
           id="text156"><tspan
             x="0"
             y="0"
             id="tspan158"
             style="font-size:7.97010994px;font-variant:normal;font-weight:normal;writing-mode:lr-tb;fill:#000000;fill-opacity:1;fill-rule:nonzero;stroke:none;font-family:CMR8;-inkscape-font-specification:CMR8">3</tspan></text>
<text
           transform="matrix(1,0,0,-1,215.20555,11.37379)"
           id="text160"><tspan
             x="0"
             y="0"
             id="tspan162"
             style="font-size:11.95510006px;font-variant:normal;font-weight:normal;writing-mode:lr-tb;fill:#000000;fill-opacity:1;fill-rule:nonzero;stroke:none;font-family:CMMI12;-inkscape-font-specification:CMMI12">t</tspan></text>
<text
           transform="matrix(1,0,0,-1,219.43563,9.58277)"
           id="text164"><tspan
             x="0"
             y="0"
             id="tspan166"
             style="font-size:7.97010994px;font-variant:normal;font-weight:normal;writing-mode:lr-tb;fill:#000000;fill-opacity:1;fill-rule:nonzero;stroke:none;font-family:CMR8;-inkscape-font-specification:CMR8">4</tspan></text>
<text
           transform="matrix(1,0,0,-1,247.80403,11.37379)"
           id="text168"><tspan
             x="0"
             y="0"
             id="tspan170"
             style="font-size:11.95510006px;font-variant:normal;font-weight:normal;writing-mode:lr-tb;fill:#000000;fill-opacity:1;fill-rule:nonzero;stroke:none;font-family:CMMI12;-inkscape-font-specification:CMMI12">t</tspan></text>
<text
           transform="matrix(1,0,0,-1,252.03372,9.58277)"
           id="text172"><tspan
             x="0"
             y="0"
             id="tspan174"
             style="font-size:7.97010994px;font-variant:normal;font-weight:normal;writing-mode:lr-tb;fill:#000000;fill-opacity:1;fill-rule:nonzero;stroke:none;font-family:CMR8;-inkscape-font-specification:CMR8">5</tspan></text>
<text
           transform="matrix(1,0,0,-1,298.82752,11.37379)"
           id="text176"><tspan
             x="0"
             y="0"
             id="tspan178"
             style="font-size:11.95510006px;font-variant:normal;font-weight:normal;writing-mode:lr-tb;fill:#000000;fill-opacity:1;fill-rule:nonzero;stroke:none;font-family:CMMI12;-inkscape-font-specification:CMMI12">t</tspan></text>
<text
           transform="matrix(1,0,0,-1,303.0576,9.58277)"
           id="text180"><tspan
             x="0"
             y="0"
             id="tspan182"
             style="font-size:7.97010994px;font-variant:normal;font-weight:normal;writing-mode:lr-tb;fill:#000000;fill-opacity:1;fill-rule:nonzero;stroke:none;font-family:CMR8;-inkscape-font-specification:CMR8">6</tspan></text>
<text
           transform="matrix(1,0,0,-1,314.7092,11.20269)"
           id="text184"><tspan
             x="0"
             y="0"
             id="tspan186"
             style="font-size:11.95510006px;font-variant:normal;font-weight:normal;writing-mode:lr-tb;fill:#000000;fill-opacity:1;fill-rule:nonzero;stroke:none;font-family:CMMI12;-inkscape-font-specification:CMMI12">t</tspan></text>
<text
           transform="matrix(1,0,0,-1,318.93928,9.41167)"
           id="text188"><tspan
             x="0"
             y="0"
             id="tspan190"
             style="font-size:7.97010994px;font-variant:normal;font-weight:normal;writing-mode:lr-tb;fill:#000000;fill-opacity:1;fill-rule:nonzero;stroke:none;font-family:CMMI8;-inkscape-font-specification:CMMI8">N</tspan></text>
<text
           transform="matrix(1,0,0,-1,330.32408,11.20269)"
           id="text192"><tspan
             x="0 12.419867"
             y="0"
             id="tspan194"
             style="font-size:11.95510006px;font-variant:normal;font-weight:normal;writing-mode:lr-tb;fill:#000000;fill-opacity:1;fill-rule:nonzero;stroke:none;font-family:CMR12;-inkscape-font-specification:CMR12">=1</tspan></text>
</g><path
         d="m 1785.85,254.934 0,56.695"
         inkscape:connector-curvature="0"
         id="path196"
         style="fill:none;stroke:#000000;stroke-width:9.96263981;stroke-linecap:butt;stroke-linejoin:miter;stroke-miterlimit:10;stroke-opacity:1;stroke-dasharray:none" /><path
         d="m 2196.88,254.934 0,56.695"
         inkscape:connector-curvature="0"
         id="path198"
         style="fill:none;stroke:#000000;stroke-width:9.96263981;stroke-linecap:butt;stroke-linejoin:miter;stroke-miterlimit:10;stroke-opacity:1;stroke-dasharray:none" /><path
         d="m 2522.86,254.934 0,56.695"
         inkscape:connector-curvature="0"
         id="path200"
         style="fill:none;stroke:#000000;stroke-width:9.96263981;stroke-linecap:butt;stroke-linejoin:miter;stroke-miterlimit:10;stroke-opacity:1;stroke-dasharray:none" /><path
         d="m 3033.09,254.934 0,56.695"
         inkscape:connector-curvature="0"
         id="path202"
         style="fill:none;stroke:#000000;stroke-width:9.96263981;stroke-linecap:butt;stroke-linejoin:miter;stroke-miterlimit:10;stroke-opacity:1;stroke-dasharray:none" /><path
         d="m 3316.56,254.934 0,56.695"
         inkscape:connector-curvature="0"
         id="path204"
         style="fill:none;stroke:#000000;stroke-width:9.96263981;stroke-linecap:butt;stroke-linejoin:miter;stroke-miterlimit:10;stroke-opacity:1;stroke-dasharray:none" /><path
         d="m 198.449,283.281 221.102,0 0,283.465 742.679,0 0,283.461 1162.2,0 0,283.463 303.31,0 0,283.47 240.94,0 0,283.46 447.88,0"
         inkscape:connector-curvature="0"
         id="path206"
         style="fill:none;stroke:#405196;stroke-width:29.8878994;stroke-linecap:butt;stroke-linejoin:miter;stroke-miterlimit:10;stroke-opacity:1;stroke-dasharray:none" /><path
         d="m 235.988,283.281 0,0 c 0,20.731 -16.808,37.535 -37.539,37.535 -20.73,0 -37.535,-16.804 -37.535,-37.535 0,-20.73 16.805,-37.539 37.535,-37.539 20.731,0 37.539,16.809 37.539,37.539"
         inkscape:connector-curvature="0"
         id="path208"
         style="fill:#8793cc;fill-opacity:1;fill-rule:nonzero;stroke:none" /><path
         d="m 235.988,283.281 0,0 c 0,20.731 -16.808,37.535 -37.539,37.535 -20.73,0 -37.535,-16.804 -37.535,-37.535 0,-20.73 16.805,-37.539 37.535,-37.539 20.731,0 37.539,16.809 37.539,37.539 z"
         inkscape:connector-curvature="0"
         id="path210"
         style="fill:none;stroke:#000000;stroke-width:9.96263981;stroke-linecap:butt;stroke-linejoin:miter;stroke-miterlimit:10;stroke-opacity:1;stroke-dasharray:none" /><path
         d="m 859.609,283.281 0,0 c 0,20.731 -16.808,37.535 -37.539,37.535 -20.73,0 -37.535,-16.804 -37.535,-37.535 0,-20.73 16.805,-37.539 37.535,-37.539 20.731,0 37.539,16.809 37.539,37.539"
         inkscape:connector-curvature="0"
         id="path212"
         style="fill:#8793cc;fill-opacity:1;fill-rule:nonzero;stroke:none" /><path
         d="m 859.609,283.281 0,0 c 0,20.731 -16.808,37.535 -37.539,37.535 -20.73,0 -37.535,-16.804 -37.535,-37.535 0,-20.73 16.805,-37.539 37.535,-37.539 20.731,0 37.539,16.809 37.539,37.539 z"
         inkscape:connector-curvature="0"
         id="path214"
         style="fill:none;stroke:#000000;stroke-width:9.96263981;stroke-linecap:butt;stroke-linejoin:miter;stroke-miterlimit:10;stroke-opacity:1;stroke-dasharray:none" /><path
         d="m 859.609,566.746 0,0 c 0,20.731 -16.808,37.535 -37.539,37.535 -20.73,0 -37.535,-16.804 -37.535,-37.535 0,-20.73 16.805,-37.539 37.535,-37.539 20.731,0 37.539,16.809 37.539,37.539"
         inkscape:connector-curvature="0"
         id="path216"
         style="fill:#8793cc;fill-opacity:1;fill-rule:nonzero;stroke:none" /><path
         d="m 859.609,566.746 0,0 c 0,20.731 -16.808,37.535 -37.539,37.535 -20.73,0 -37.535,-16.804 -37.535,-37.535 0,-20.73 16.805,-37.539 37.535,-37.539 20.731,0 37.539,16.809 37.539,37.539 z"
         inkscape:connector-curvature="0"
         id="path218"
         style="fill:none;stroke:#000000;stroke-width:9.96263981;stroke-linecap:butt;stroke-linejoin:miter;stroke-miterlimit:10;stroke-opacity:1;stroke-dasharray:none" /><path
         d="m 859.609,850.207 0,0 c 0,20.731 -16.808,37.539 -37.539,37.539 -20.73,0 -37.535,-16.808 -37.535,-37.539 0,-20.73 16.805,-37.535 37.535,-37.535 20.731,0 37.539,16.805 37.539,37.535"
         inkscape:connector-curvature="0"
         id="path220"
         style="fill:#ffffff;fill-opacity:1;fill-rule:nonzero;stroke:none" /><path
         d="m 859.609,850.207 0,0 c 0,20.731 -16.808,37.539 -37.539,37.539 -20.73,0 -37.535,-16.808 -37.535,-37.539 0,-20.73 16.805,-37.535 37.535,-37.535 20.731,0 37.539,16.805 37.539,37.535 z"
         inkscape:connector-curvature="0"
         id="path222"
         style="fill:none;stroke:#000000;stroke-width:9.96263981;stroke-linecap:butt;stroke-linejoin:miter;stroke-miterlimit:10;stroke-opacity:1;stroke-dasharray:none" /><path
         d="m 1653.31,283.281 0,0 c 0,20.731 -16.81,37.535 -37.54,37.535 -20.73,0 -37.54,-16.804 -37.54,-37.535 0,-20.73 16.81,-37.539 37.54,-37.539 20.73,0 37.54,16.809 37.54,37.539"
         inkscape:connector-curvature="0"
         id="path224"
         style="fill:#ffffff;fill-opacity:1;fill-rule:nonzero;stroke:none" /><path
         d="m 1653.31,283.281 0,0 c 0,20.731 -16.81,37.535 -37.54,37.535 -20.73,0 -37.54,-16.804 -37.54,-37.535 0,-20.73 16.81,-37.539 37.54,-37.539 20.73,0 37.54,16.809 37.54,37.539 z"
         inkscape:connector-curvature="0"
         id="path226"
         style="fill:none;stroke:#000000;stroke-width:9.96263981;stroke-linecap:butt;stroke-linejoin:miter;stroke-miterlimit:10;stroke-opacity:1;stroke-dasharray:none" /><path
         d="m 1653.31,566.746 0,0 c 0,20.731 -16.81,37.535 -37.54,37.535 -20.73,0 -37.54,-16.804 -37.54,-37.535 0,-20.73 16.81,-37.539 37.54,-37.539 20.73,0 37.54,16.809 37.54,37.539"
         inkscape:connector-curvature="0"
         id="path228"
         style="fill:#8793cc;fill-opacity:1;fill-rule:nonzero;stroke:none" /><path
         d="m 1653.31,566.746 0,0 c 0,20.731 -16.81,37.535 -37.54,37.535 -20.73,0 -37.54,-16.804 -37.54,-37.535 0,-20.73 16.81,-37.539 37.54,-37.539 20.73,0 37.54,16.809 37.54,37.539 z"
         inkscape:connector-curvature="0"
         id="path230"
         style="fill:none;stroke:#000000;stroke-width:9.96263981;stroke-linecap:butt;stroke-linejoin:miter;stroke-miterlimit:10;stroke-opacity:1;stroke-dasharray:none" /><path
         d="m 1653.31,850.207 0,0 c 0,20.731 -16.81,37.539 -37.54,37.539 -20.73,0 -37.54,-16.808 -37.54,-37.539 0,-20.73 16.81,-37.535 37.54,-37.535 20.73,0 37.54,16.805 37.54,37.535"
         inkscape:connector-curvature="0"
         id="path232"
         style="fill:#8793cc;fill-opacity:1;fill-rule:nonzero;stroke:none" /><path
         d="m 1653.31,850.207 0,0 c 0,20.731 -16.81,37.539 -37.54,37.539 -20.73,0 -37.54,-16.808 -37.54,-37.539 0,-20.73 16.81,-37.535 37.54,-37.535 20.73,0 37.54,16.805 37.54,37.535 z"
         inkscape:connector-curvature="0"
         id="path234"
         style="fill:none;stroke:#000000;stroke-width:9.96263981;stroke-linecap:butt;stroke-linejoin:miter;stroke-miterlimit:10;stroke-opacity:1;stroke-dasharray:none" /><path
         d="m 1823.39,566.746 0,0 c 0,20.731 -16.81,37.535 -37.54,37.535 -20.73,0 -37.53,-16.804 -37.53,-37.535 0,-20.73 16.8,-37.539 37.53,-37.539 20.73,0 37.54,16.809 37.54,37.539"
         inkscape:connector-curvature="0"
         id="path236"
         style="fill:#8793cc;fill-opacity:1;fill-rule:nonzero;stroke:none" /><path
         d="m 1823.39,566.746 0,0 c 0,20.731 -16.81,37.535 -37.54,37.535 -20.73,0 -37.53,-16.804 -37.53,-37.535 0,-20.73 16.8,-37.539 37.53,-37.539 20.73,0 37.54,16.809 37.54,37.539 z"
         inkscape:connector-curvature="0"
         id="path238"
         style="fill:none;stroke:#000000;stroke-width:9.96263981;stroke-linecap:butt;stroke-linejoin:miter;stroke-miterlimit:10;stroke-opacity:1;stroke-dasharray:none" /><path
         d="m 1823.39,850.207 0,0 c 0,20.731 -16.81,37.539 -37.54,37.539 -20.73,0 -37.53,-16.808 -37.53,-37.539 0,-20.73 16.8,-37.535 37.53,-37.535 20.73,0 37.54,16.805 37.54,37.535"
         inkscape:connector-curvature="0"
         id="path240"
         style="fill:#8793cc;fill-opacity:1;fill-rule:nonzero;stroke:none" /><path
         d="m 1823.39,850.207 0,0 c 0,20.731 -16.81,37.539 -37.54,37.539 -20.73,0 -37.53,-16.808 -37.53,-37.539 0,-20.73 16.8,-37.535 37.53,-37.535 20.73,0 37.54,16.805 37.54,37.535 z"
         inkscape:connector-curvature="0"
         id="path242"
         style="fill:none;stroke:#000000;stroke-width:9.96263981;stroke-linecap:butt;stroke-linejoin:miter;stroke-miterlimit:10;stroke-opacity:1;stroke-dasharray:none" /><path
         d="m 1823.39,1133.67 0,0 c 0,20.73 -16.81,37.54 -37.54,37.54 -20.73,0 -37.53,-16.81 -37.53,-37.54 0,-20.73 16.8,-37.53 37.53,-37.53 20.73,0 37.54,16.8 37.54,37.53"
         inkscape:connector-curvature="0"
         id="path244"
         style="fill:#ffffff;fill-opacity:1;fill-rule:nonzero;stroke:none" /><path
         d="m 1823.39,1133.67 0,0 c 0,20.73 -16.81,37.54 -37.54,37.54 -20.73,0 -37.53,-16.81 -37.53,-37.54 0,-20.73 16.8,-37.53 37.53,-37.53 20.73,0 37.54,16.8 37.54,37.53 z"
         inkscape:connector-curvature="0"
         id="path246"
         style="fill:none;stroke:#000000;stroke-width:9.96263981;stroke-linecap:butt;stroke-linejoin:miter;stroke-miterlimit:10;stroke-opacity:1;stroke-dasharray:none" /><path
         d="m 2234.41,566.746 0,0 c 0,20.731 -16.8,37.535 -37.53,37.535 -20.74,0 -37.54,-16.804 -37.54,-37.535 0,-20.73 16.8,-37.539 37.54,-37.539 20.73,0 37.53,16.809 37.53,37.539"
         inkscape:connector-curvature="0"
         id="path248"
         style="fill:#ffffff;fill-opacity:1;fill-rule:nonzero;stroke:none" /><path
         d="m 2234.41,566.746 0,0 c 0,20.731 -16.8,37.535 -37.53,37.535 -20.74,0 -37.54,-16.804 -37.54,-37.535 0,-20.73 16.8,-37.539 37.54,-37.539 20.73,0 37.53,16.809 37.53,37.539 z"
         inkscape:connector-curvature="0"
         id="path250"
         style="fill:none;stroke:#000000;stroke-width:9.96263981;stroke-linecap:butt;stroke-linejoin:miter;stroke-miterlimit:10;stroke-opacity:1;stroke-dasharray:none" /><path
         d="m 2234.41,850.207 0,0 c 0,20.731 -16.8,37.539 -37.53,37.539 -20.74,0 -37.54,-16.808 -37.54,-37.539 0,-20.73 16.8,-37.535 37.54,-37.535 20.73,0 37.53,16.805 37.53,37.535"
         inkscape:connector-curvature="0"
         id="path252"
         style="fill:#8793cc;fill-opacity:1;fill-rule:nonzero;stroke:none" /><path
         d="m 2234.41,850.207 0,0 c 0,20.731 -16.8,37.539 -37.53,37.539 -20.74,0 -37.54,-16.808 -37.54,-37.539 0,-20.73 16.8,-37.535 37.54,-37.535 20.73,0 37.53,16.805 37.53,37.535 z"
         inkscape:connector-curvature="0"
         id="path254"
         style="fill:none;stroke:#000000;stroke-width:9.96263981;stroke-linecap:butt;stroke-linejoin:miter;stroke-miterlimit:10;stroke-opacity:1;stroke-dasharray:none" /><path
         d="m 2234.41,1133.67 0,0 c 0,20.73 -16.8,37.54 -37.53,37.54 -20.74,0 -37.54,-16.81 -37.54,-37.54 0,-20.73 16.8,-37.53 37.54,-37.53 20.73,0 37.53,16.8 37.53,37.53"
         inkscape:connector-curvature="0"
         id="path256"
         style="fill:#8793cc;fill-opacity:1;fill-rule:nonzero;stroke:none" /><path
         d="m 2234.41,1133.67 0,0 c 0,20.73 -16.8,37.54 -37.53,37.54 -20.74,0 -37.54,-16.81 -37.54,-37.54 0,-20.73 16.8,-37.53 37.54,-37.53 20.73,0 37.53,16.8 37.53,37.53 z"
         inkscape:connector-curvature="0"
         id="path258"
         style="fill:none;stroke:#000000;stroke-width:9.96263981;stroke-linecap:butt;stroke-linejoin:miter;stroke-miterlimit:10;stroke-opacity:1;stroke-dasharray:none" /><path
         d="m 2560.39,850.207 0,0 c 0,20.731 -16.8,37.539 -37.53,37.539 -20.73,0 -37.54,-16.808 -37.54,-37.539 0,-20.73 16.81,-37.535 37.54,-37.535 20.73,0 37.53,16.805 37.53,37.535"
         inkscape:connector-curvature="0"
         id="path260"
         style="fill:#8793cc;fill-opacity:1;fill-rule:nonzero;stroke:none" /><path
         d="m 2560.39,850.207 0,0 c 0,20.731 -16.8,37.539 -37.53,37.539 -20.73,0 -37.54,-16.808 -37.54,-37.539 0,-20.73 16.81,-37.535 37.54,-37.535 20.73,0 37.53,16.805 37.53,37.535 z"
         inkscape:connector-curvature="0"
         id="path262"
         style="fill:none;stroke:#000000;stroke-width:9.96263981;stroke-linecap:butt;stroke-linejoin:miter;stroke-miterlimit:10;stroke-opacity:1;stroke-dasharray:none" /><path
         d="m 2560.39,1133.67 0,0 c 0,20.73 -16.8,37.54 -37.53,37.54 -20.73,0 -37.54,-16.81 -37.54,-37.54 0,-20.73 16.81,-37.53 37.54,-37.53 20.73,0 37.53,16.8 37.53,37.53"
         inkscape:connector-curvature="0"
         id="path264"
         style="fill:#8793cc;fill-opacity:1;fill-rule:nonzero;stroke:none" /><path
         d="m 2560.39,1133.67 0,0 c 0,20.73 -16.8,37.54 -37.53,37.54 -20.73,0 -37.54,-16.81 -37.54,-37.54 0,-20.73 16.81,-37.53 37.54,-37.53 20.73,0 37.53,16.8 37.53,37.53 z"
         inkscape:connector-curvature="0"
         id="path266"
         style="fill:none;stroke:#000000;stroke-width:9.96263981;stroke-linecap:butt;stroke-linejoin:miter;stroke-miterlimit:10;stroke-opacity:1;stroke-dasharray:none" /><path
         d="m 2560.39,1417.14 0,0 c 0,20.73 -16.8,37.54 -37.53,37.54 -20.73,0 -37.54,-16.81 -37.54,-37.54 0,-20.73 16.81,-37.54 37.54,-37.54 20.73,0 37.53,16.81 37.53,37.54"
         inkscape:connector-curvature="0"
         id="path268"
         style="fill:#ffffff;fill-opacity:1;fill-rule:nonzero;stroke:none" /><path
         d="m 2560.39,1417.14 0,0 c 0,20.73 -16.8,37.54 -37.53,37.54 -20.73,0 -37.54,-16.81 -37.54,-37.54 0,-20.73 16.81,-37.54 37.54,-37.54 20.73,0 37.53,16.81 37.53,37.54 z"
         inkscape:connector-curvature="0"
         id="path270"
         style="fill:none;stroke:#000000;stroke-width:9.96263981;stroke-linecap:butt;stroke-linejoin:miter;stroke-miterlimit:10;stroke-opacity:1;stroke-dasharray:none" /><path
         d="m 3070.63,850.207 0,0 c 0,20.731 -16.81,37.539 -37.54,37.539 -20.73,0 -37.53,-16.808 -37.53,-37.539 0,-20.73 16.8,-37.535 37.53,-37.535 20.73,0 37.54,16.805 37.54,37.535"
         inkscape:connector-curvature="0"
         id="path272"
         style="fill:#8793cc;fill-opacity:1;fill-rule:nonzero;stroke:none" /><path
         d="m 3070.63,850.207 0,0 c 0,20.731 -16.81,37.539 -37.54,37.539 -20.73,0 -37.53,-16.808 -37.53,-37.539 0,-20.73 16.8,-37.535 37.53,-37.535 20.73,0 37.54,16.805 37.54,37.535 z"
         inkscape:connector-curvature="0"
         id="path274"
         style="fill:none;stroke:#000000;stroke-width:9.96263981;stroke-linecap:butt;stroke-linejoin:miter;stroke-miterlimit:10;stroke-opacity:1;stroke-dasharray:none" /><path
         d="m 3070.63,1133.67 0,0 c 0,20.73 -16.81,37.54 -37.54,37.54 -20.73,0 -37.53,-16.81 -37.53,-37.54 0,-20.73 16.8,-37.53 37.53,-37.53 20.73,0 37.54,16.8 37.54,37.53"
         inkscape:connector-curvature="0"
         id="path276"
         style="fill:#8793cc;fill-opacity:1;fill-rule:nonzero;stroke:none" /><path
         d="m 3070.63,1133.67 0,0 c 0,20.73 -16.81,37.54 -37.54,37.54 -20.73,0 -37.53,-16.81 -37.53,-37.54 0,-20.73 16.8,-37.53 37.53,-37.53 20.73,0 37.54,16.8 37.54,37.53 z"
         inkscape:connector-curvature="0"
         id="path278"
         style="fill:none;stroke:#000000;stroke-width:9.96263981;stroke-linecap:butt;stroke-linejoin:miter;stroke-miterlimit:10;stroke-opacity:1;stroke-dasharray:none" /><path
         d="m 3070.63,1417.14 0,0 c 0,20.73 -16.81,37.54 -37.54,37.54 -20.73,0 -37.53,-16.81 -37.53,-37.54 0,-20.73 16.8,-37.54 37.53,-37.54 20.73,0 37.54,16.81 37.54,37.54"
         inkscape:connector-curvature="0"
         id="path280"
         style="fill:#8793cc;fill-opacity:1;fill-rule:nonzero;stroke:none" /><path
         d="m 3070.63,1417.14 0,0 c 0,20.73 -16.81,37.54 -37.54,37.54 -20.73,0 -37.53,-16.81 -37.53,-37.54 0,-20.73 16.8,-37.54 37.53,-37.54 20.73,0 37.54,16.81 37.54,37.54 z"
         inkscape:connector-curvature="0"
         id="path282"
         style="fill:none;stroke:#000000;stroke-width:9.96263981;stroke-linecap:butt;stroke-linejoin:miter;stroke-miterlimit:10;stroke-opacity:1;stroke-dasharray:none" /><path
         d="m 3070.63,1700.6 0,0 c 0,20.73 -16.81,37.54 -37.54,37.54 -20.73,0 -37.53,-16.81 -37.53,-37.54 0,-20.73 16.8,-37.53 37.53,-37.53 20.73,0 37.54,16.8 37.54,37.53"
         inkscape:connector-curvature="0"
         id="path284"
         style="fill:#ffffff;fill-opacity:1;fill-rule:nonzero;stroke:none" /><path
         d="m 3070.63,1700.6 0,0 c 0,20.73 -16.81,37.54 -37.54,37.54 -20.73,0 -37.53,-16.81 -37.53,-37.54 0,-20.73 16.8,-37.53 37.53,-37.53 20.73,0 37.54,16.8 37.54,37.53 z"
         inkscape:connector-curvature="0"
         id="path286"
         style="fill:none;stroke:#000000;stroke-width:9.96263981;stroke-linecap:butt;stroke-linejoin:miter;stroke-miterlimit:10;stroke-opacity:1;stroke-dasharray:none" /><path
         d="m 3354.09,850.207 0,0 c 0,20.731 -16.8,37.539 -37.53,37.539 -20.73,0 -37.54,-16.808 -37.54,-37.539 0,-20.73 16.81,-37.535 37.54,-37.535 20.73,0 37.53,16.805 37.53,37.535"
         inkscape:connector-curvature="0"
         id="path288"
         style="fill:#8793cc;fill-opacity:1;fill-rule:nonzero;stroke:none" /><path
         d="m 3354.09,850.207 0,0 c 0,20.731 -16.8,37.539 -37.53,37.539 -20.73,0 -37.54,-16.808 -37.54,-37.539 0,-20.73 16.81,-37.535 37.54,-37.535 20.73,0 37.53,16.805 37.53,37.535 z"
         inkscape:connector-curvature="0"
         id="path290"
         style="fill:none;stroke:#000000;stroke-width:9.96263981;stroke-linecap:butt;stroke-linejoin:miter;stroke-miterlimit:10;stroke-opacity:1;stroke-dasharray:none" /><path
         d="m 3354.09,1133.67 0,0 c 0,20.73 -16.8,37.54 -37.53,37.54 -20.73,0 -37.54,-16.81 -37.54,-37.54 0,-20.73 16.81,-37.53 37.54,-37.53 20.73,0 37.53,16.8 37.53,37.53"
         inkscape:connector-curvature="0"
         id="path292"
         style="fill:#8793cc;fill-opacity:1;fill-rule:nonzero;stroke:none" /><path
         d="m 3354.09,1133.67 0,0 c 0,20.73 -16.8,37.54 -37.53,37.54 -20.73,0 -37.54,-16.81 -37.54,-37.54 0,-20.73 16.81,-37.53 37.54,-37.53 20.73,0 37.53,16.8 37.53,37.53 z"
         inkscape:connector-curvature="0"
         id="path294"
         style="fill:none;stroke:#000000;stroke-width:9.96263981;stroke-linecap:butt;stroke-linejoin:miter;stroke-miterlimit:10;stroke-opacity:1;stroke-dasharray:none" /><path
         d="m 3354.09,1417.14 0,0 c 0,20.73 -16.8,37.54 -37.53,37.54 -20.73,0 -37.54,-16.81 -37.54,-37.54 0,-20.73 16.81,-37.54 37.54,-37.54 20.73,0 37.53,16.81 37.53,37.54"
         inkscape:connector-curvature="0"
         id="path296"
         style="fill:#8793cc;fill-opacity:1;fill-rule:nonzero;stroke:none" /><path
         d="m 3354.09,1417.14 0,0 c 0,20.73 -16.8,37.54 -37.53,37.54 -20.73,0 -37.54,-16.81 -37.54,-37.54 0,-20.73 16.81,-37.54 37.54,-37.54 20.73,0 37.53,16.81 37.53,37.54 z"
         inkscape:connector-curvature="0"
         id="path298"
         style="fill:none;stroke:#000000;stroke-width:9.96263981;stroke-linecap:butt;stroke-linejoin:miter;stroke-miterlimit:10;stroke-opacity:1;stroke-dasharray:none" /><path
         d="m 3354.09,1700.6 0,0 c 0,20.73 -16.8,37.54 -37.53,37.54 -20.73,0 -37.54,-16.81 -37.54,-37.54 0,-20.73 16.81,-37.53 37.54,-37.53 20.73,0 37.53,16.8 37.53,37.53"
         inkscape:connector-curvature="0"
         id="path300"
         style="fill:#8793cc;fill-opacity:1;fill-rule:nonzero;stroke:none" /><path
         d="m 3354.09,1700.6 0,0 c 0,20.73 -16.8,37.54 -37.53,37.54 -20.73,0 -37.54,-16.81 -37.54,-37.54 0,-20.73 16.81,-37.53 37.54,-37.53 20.73,0 37.53,16.8 37.53,37.53 z"
         inkscape:connector-curvature="0"
         id="path302"
         style="fill:none;stroke:#000000;stroke-width:9.96263981;stroke-linecap:butt;stroke-linejoin:miter;stroke-miterlimit:10;stroke-opacity:1;stroke-dasharray:none" /></g></g></svg>