<?xml version="1.0" encoding="UTF-8" standalone="no"?>
<!DOCTYPE svg PUBLIC "-//W3C//DTD SVG 1.1//EN"
"http://www.w3.org/Graphics/SVG/1.1/DTD/svg11.dtd">


<!-- Page 1 -->
<svg x="0" y="0" width="731" height="234" viewBox="0 0 731 234" version="1.1" xmlns="http://www.w3.org/2000/svg" xmlns:xlink="http://www.w3.org/1999/xlink"
style="display: block;margin-left: auto;margin-right: auto;">
<defs>

<style type="text/css"><![CDATA[

.g0_1{
fill: #FF0000;
stroke: #FF0000;
stroke-width: 0.6088194;
stroke-linecap: butt;
stroke-linejoin: miter;
}
.g1_1{
fill: none;
stroke: #FF0000;
stroke-width: 1.8265041;
stroke-linecap: butt;
stroke-linejoin: miter;
}
.g2_1{
fill: #0000FF;
stroke: #0000FF;
stroke-width: 0.6088194;
stroke-linecap: butt;
stroke-linejoin: miter;
}
.g3_1{
fill: none;
stroke: #0000FF;
stroke-width: 1.8265041;
stroke-linecap: butt;
stroke-linejoin: miter;
}

.s1_1{
font-size: 15.22px;
font-family: CMMI10_7;
fill: #000000;
}
.s2_1{
font-size: 10.65px;
font-family: CMR7_8;
fill: #000000;
}

]]></style>

</defs>
<path d="M0,0
L0,234
L731,234
L731,0 Z " 
fill="#FFFFFF" stroke="none" />
<path d="M196.3,42.4c0,-2,-1.7,-3.7,-3.8,-3.7c-2,0,-3.7,1.7,-3.7,3.7c0,2.1,1.7,3.8,3.7,3.8c2.1,0,3.8,-1.7,3.8,-3.8Z" class="g0_1" />
<text x="184" y="30" class="s1_1">F</text>
<text x="194" y="32" class="s2_1">1</text>
<path d="M196.3,85.8c0,-2.1,-1.7,-3.8,-3.8,-3.8c-2,0,-3.7,1.7,-3.7,3.8c0,2.1,1.7,3.7,3.7,3.7c2.1,0,3.8,-1.6,3.8,-3.7Z" class="g0_1" />
<path d="M192.5,81.7V46.5" class="g1_1" />
<path d="M196.3,129.1c0,-2.1,-1.7,-3.8,-3.8,-3.8c-2,0,-3.7,1.7,-3.7,3.8c0,2.1,1.7,3.8,3.7,3.8c2.1,0,3.8,-1.7,3.8,-3.8Z" class="g0_1" />
<path d="M192.5,125V89.9" class="g1_1" />
<path d="M196.3,172.4c0,-2.1,-1.7,-3.8,-3.8,-3.8c-2,0,-3.7,1.7,-3.7,3.8c0,2.1,1.7,3.8,3.7,3.8c2.1,0,3.8,-1.7,3.8,-3.8Z" class="g0_1" />
<path d="M192.5,168.3V133.2" class="g1_1" />
<path d="M153,129.1c0,-2.1,-1.7,-3.8,-3.8,-3.8c-2.1,0,-3.8,1.7,-3.8,3.8c0,2.1,1.7,3.8,3.8,3.8c2.1,0,3.8,-1.7,3.8,-3.8Z" class="g0_1" />
<path d="M152.1,126.2L189.6,88.7" class="g1_1" />
<path d="M239.6,129.1c0,-2.1,-1.7,-3.8,-3.7,-3.8c-2.1,0,-3.8,1.7,-3.8,3.8c0,2.1,1.7,3.8,3.8,3.8c2,0,3.7,-1.7,3.7,-3.8Z" class="g0_1" />
<path d="M233,126.2L195.4,88.7" class="g1_1" />
<path d="M66.4,85.8C66.4,83.7,64.7,82,62.6,82c-2.1,0,-3.8,1.7,-3.8,3.8c0,2.1,1.7,3.7,3.8,3.7c2.1,0,3.8,-1.6,3.8,-3.7Z" class="g0_1" />
<path d="M66.5,84.5L188.7,43.7" class="g1_1" />
<path d="M66.4,129.1c0,-2.1,-1.7,-3.8,-3.8,-3.8c-2.1,0,-3.8,1.7,-3.8,3.8c0,2.1,1.7,3.8,3.8,3.8c2.1,0,3.8,-1.7,3.8,-3.8Z" class="g0_1" />
<path d="M62.6,125V89.9" class="g1_1" />
<path d="M66.4,172.4c0,-2.1,-1.7,-3.8,-3.8,-3.8c-2.1,0,-3.8,1.7,-3.8,3.8c0,2.1,1.7,3.8,3.8,3.8c2.1,0,3.8,-1.7,3.8,-3.8Z" class="g0_1" />
<path d="M62.6,168.3V133.2" class="g1_1" />
<path d="M23.1,129.1c0,-2.1,-1.7,-3.8,-3.8,-3.8c-2.1,0,-3.8,1.7,-3.8,3.8c0,2.1,1.7,3.8,3.8,3.8c2.1,0,3.8,-1.7,3.8,-3.8Z" class="g0_1" />
<path d="M22.2,126.2L59.7,88.7" class="g1_1" />
<path d="M109.7,129.1c0,-2.1,-1.7,-3.8,-3.8,-3.8c-2.1,0,-3.8,1.7,-3.8,3.8c0,2.1,1.7,3.8,3.8,3.8c2.1,0,3.8,-1.7,3.8,-3.8Z" class="g0_1" />
<path d="M103,126.2L65.5,88.7" class="g1_1" />
<path d="M109.7,172.4c0,-2.1,-1.7,-3.8,-3.8,-3.8c-2.1,0,-3.8,1.7,-3.8,3.8c0,2.1,1.7,3.8,3.8,3.8c2.1,0,3.8,-1.7,3.8,-3.8Z" class="g0_1" />
<path d="M108.8,169.5L146.3,132" class="g1_1" />
<path d="M109.7,215.7c0,-2.1,-1.7,-3.8,-3.8,-3.8c-2.1,0,-3.8,1.7,-3.8,3.8c0,2.1,1.7,3.8,3.8,3.8c2.1,0,3.8,-1.7,3.8,-3.8Z" class="g0_1" />
<path d="M326.3,85.8c0,-2.1,-1.7,-3.8,-3.8,-3.8c-2.1,0,-3.8,1.7,-3.8,3.8c0,2.1,1.7,3.7,3.8,3.7c2.1,0,3.8,-1.6,3.8,-3.7Z" class="g0_1" />
<path d="M318.6,84.5L196.4,43.7" class="g1_1" />
<path d="M326.3,129.1c0,-2.1,-1.7,-3.8,-3.8,-3.8c-2.1,0,-3.8,1.7,-3.8,3.8c0,2.1,1.7,3.8,3.8,3.8c2.1,0,3.8,-1.7,3.8,-3.8Z" class="g0_1" />
<path d="M326.3,172.4c0,-2.1,-1.7,-3.8,-3.8,-3.8c-2.1,0,-3.8,1.7,-3.8,3.8c0,2.1,1.7,3.8,3.8,3.8c2.1,0,3.8,-1.7,3.8,-3.8Z" class="g0_1" />
<path d="M326.3,215.7c0,-2.1,-1.7,-3.8,-3.8,-3.8c-2.1,0,-3.8,1.7,-3.8,3.8c0,2.1,1.7,3.8,3.8,3.8c2.1,0,3.8,-1.7,3.8,-3.8Z" class="g0_1" />
<path d="M282.9,129.1c0,-2.1,-1.6,-3.8,-3.7,-3.8c-2.1,0,-3.8,1.7,-3.8,3.8c0,2.1,1.7,3.8,3.8,3.8c2.1,0,3.7,-1.7,3.7,-3.8Z" class="g0_1" />
<path d="M276.3,126.2L195.4,45.3" class="g1_1" />
<path d="M282.9,172.4c0,-2.1,-1.6,-3.8,-3.7,-3.8c-2.1,0,-3.8,1.7,-3.8,3.8c0,2.1,1.7,3.8,3.8,3.8c2.1,0,3.7,-1.7,3.7,-3.8Z" class="g0_1" />
<path d="M282.9,215.7c0,-2.1,-1.6,-3.8,-3.7,-3.8c-2.1,0,-3.8,1.7,-3.8,3.8c0,2.1,1.7,3.8,3.8,3.8c2.1,0,3.7,-1.7,3.7,-3.8Z" class="g0_1" />
<path d="M586.1,42.4c0,-2,-1.7,-3.7,-3.8,-3.7c-2.1,0,-3.8,1.7,-3.8,3.7c0,2.1,1.7,3.8,3.8,3.8c2.1,0,3.8,-1.7,3.8,-3.8Z" class="g2_1" />
<text x="573" y="30" class="s1_1">F</text>
<text x="583" y="32" class="s2_1">2</text>
<path d="M586.1,85.8c0,-2.1,-1.7,-3.8,-3.8,-3.8c-2.1,0,-3.8,1.7,-3.8,3.8c0,2.1,1.7,3.7,3.8,3.7c2.1,0,3.8,-1.6,3.8,-3.7Z" class="g2_1" />
<path d="M582.3,81.7V46.5" class="g3_1" />
<path d="M586.1,129.1c0,-2.1,-1.7,-3.8,-3.8,-3.8c-2.1,0,-3.8,1.7,-3.8,3.8c0,2.1,1.7,3.8,3.8,3.8c2.1,0,3.8,-1.7,3.8,-3.8Z" class="g2_1" />
<path d="M582.3,125V89.9" class="g3_1" />
<path d="M586.1,172.4c0,-2.1,-1.7,-3.8,-3.8,-3.8c-2.1,0,-3.8,1.7,-3.8,3.8c0,2.1,1.7,3.8,3.8,3.8c2.1,0,3.8,-1.7,3.8,-3.8Z" class="g2_1" />
<path d="M582.3,168.3V133.2" class="g3_1" />
<path d="M542.8,129.1c0,-2.1,-1.7,-3.8,-3.8,-3.8c-2.1,0,-3.8,1.7,-3.8,3.8c0,2.1,1.7,3.8,3.8,3.8c2.1,0,3.8,-1.7,3.8,-3.8Z" class="g2_1" />
<path d="M540.8,125.4L580.5,46.1" class="g3_1" />
<path d="M629.4,129.1c0,-2.1,-1.7,-3.8,-3.8,-3.8c-2.1,0,-3.8,1.7,-3.8,3.8c0,2.1,1.7,3.8,3.8,3.8c2.1,0,3.8,-1.7,3.8,-3.8Z" class="g2_1" />
<path d="M622.7,126.2L585.2,88.7" class="g3_1" />
<path d="M456.2,85.8c0,-2.1,-1.7,-3.8,-3.8,-3.8c-2.1,0,-3.8,1.7,-3.8,3.8c0,2.1,1.7,3.7,3.8,3.7c2.1,0,3.8,-1.6,3.8,-3.7Z" class="g2_1" />
<path d="M456.3,84.5L578.4,43.7" class="g3_1" />
<path d="M456.2,129.1c0,-2.1,-1.7,-3.8,-3.8,-3.8c-2.1,0,-3.8,1.7,-3.8,3.8c0,2.1,1.7,3.8,3.8,3.8c2.1,0,3.8,-1.7,3.8,-3.8Z" class="g2_1" />
<path d="M452.4,125V89.9" class="g3_1" />
<path d="M456.2,172.4c0,-2.1,-1.7,-3.8,-3.8,-3.8c-2.1,0,-3.8,1.7,-3.8,3.8c0,2.1,1.7,3.8,3.8,3.8c2.1,0,3.8,-1.7,3.8,-3.8Z" class="g2_1" />
<path d="M452.4,168.3V133.2" class="g3_1" />
<path d="M412.9,129.1c0,-2.1,-1.7,-3.8,-3.8,-3.8c-2.1,0,-3.8,1.7,-3.8,3.8c0,2.1,1.7,3.8,3.8,3.8c2.1,0,3.8,-1.7,3.8,-3.8Z" class="g2_1" />
<path d="M412,126.2L449.5,88.7" class="g3_1" />
<path d="M499.5,129.1c0,-2.1,-1.7,-3.8,-3.8,-3.8c-2.1,0,-3.8,1.7,-3.8,3.8c0,2.1,1.7,3.8,3.8,3.8c2.1,0,3.8,-1.7,3.8,-3.8Z" class="g2_1" />
<path d="M499.5,172.4c0,-2.1,-1.7,-3.8,-3.8,-3.8c-2.1,0,-3.8,1.7,-3.8,3.8c0,2.1,1.7,3.8,3.8,3.8c2.1,0,3.8,-1.7,3.8,-3.8Z" class="g2_1" />
<path d="M495.7,168.3V133.2" class="g3_1" />
<path d="M499.5,215.7c0,-2.1,-1.7,-3.8,-3.8,-3.8c-2.1,0,-3.8,1.7,-3.8,3.8c0,2.1,1.7,3.8,3.8,3.8c2.1,0,3.8,-1.7,3.8,-3.8Z" class="g2_1" />
<path d="M495.7,211.6V176.5" class="g3_1" />
<path d="M716,85.8C716,83.7,714.3,82,712.2,82c-2.1,0,-3.8,1.7,-3.8,3.8c0,2.1,1.7,3.7,3.8,3.7c2.1,0,3.8,-1.6,3.8,-3.7Z" class="g2_1" />
<path d="M716,129.1c0,-2.1,-1.7,-3.8,-3.8,-3.8c-2.1,0,-3.8,1.7,-3.8,3.8c0,2.1,1.7,3.8,3.8,3.8c2.1,0,3.8,-1.7,3.8,-3.8Z" class="g2_1" />
<path d="M712.2,125V89.9" class="g3_1" />
<path d="M716,172.4c0,-2.1,-1.7,-3.8,-3.8,-3.8c-2.1,0,-3.8,1.7,-3.8,3.8c0,2.1,1.7,3.8,3.8,3.8c2.1,0,3.8,-1.7,3.8,-3.8Z" class="g2_1" />
<path d="M716,215.7c0,-2.1,-1.7,-3.8,-3.8,-3.8c-2.1,0,-3.8,1.7,-3.8,3.8c0,2.1,1.7,3.8,3.8,3.8c2.1,0,3.8,-1.7,3.8,-3.8Z" class="g2_1" />
<path d="M672.7,129.1c0,-2.1,-1.7,-3.8,-3.8,-3.8c-2.1,0,-3.8,1.7,-3.8,3.8c0,2.1,1.7,3.8,3.8,3.8c2.1,0,3.8,-1.7,3.8,-3.8Z" class="g2_1" />
<path d="M665.3,127.2L586,87.6" class="g3_1" />
<path d="M672.7,172.4c0,-2.1,-1.7,-3.8,-3.8,-3.8c-2.1,0,-3.8,1.7,-3.8,3.8c0,2.1,1.7,3.8,3.8,3.8c2.1,0,3.8,-1.7,3.8,-3.8Z" class="g2_1" />
<path d="M672.7,215.7c0,-2.1,-1.7,-3.8,-3.8,-3.8c-2.1,0,-3.8,1.7,-3.8,3.8c0,2.1,1.7,3.8,3.8,3.8c2.1,0,3.8,-1.7,3.8,-3.8Z" class="g2_1" />


<!-- Any embedded fonts defined here -->
<style type="text/css" ><![CDATA[

@font-face {
	font-family: CMMI10_7;
	src: url("fonts/CMMI10_7.woff") format("woff");
}

@font-face {
	font-family: CMR7_8;
	src: url("fonts/CMR7_8.woff") format("woff");
}

]]></style>

</svg>
